<svg width="83" height="104" viewBox="0 0 83 104" fill="none" xmlns="http://www.w3.org/2000/svg">
<path d="M45.837 0.301878C39.5632 -1.26656 33.7357 3.47813 33.3157 9.62063C32.8432 16.5178 31.8064 22.8506 30.507 26.6175C29.6867 28.98 27.3636 33.2653 23.682 37.3734C20.0267 41.4619 15.2689 45.1041 9.69731 46.6266C5.28731 47.8275 0.791992 51.6469 0.791992 57.225V83.4816C0.791992 89.0269 5.26762 93.0891 10.2945 93.6206C17.3164 94.3687 20.5582 96.3441 23.8657 98.3653L24.1807 98.5622C25.9657 99.645 27.9739 100.846 30.5464 101.738C33.1517 102.631 36.1967 103.162 40.167 103.162H63.1357C69.2848 103.162 73.6292 100.032 75.8276 96.18C76.8902 94.3622 77.4644 92.3004 77.4945 90.195C77.4945 89.1975 77.3436 88.1475 76.9892 87.15C78.3082 85.4241 79.4829 83.3569 80.1917 81.2372C80.9136 79.0716 81.3204 76.2366 80.2179 73.6969C80.6707 72.8437 81.0054 71.9316 81.2614 71.0522C81.7667 69.2803 82.0029 67.3247 82.0029 65.4281C82.0029 63.5381 81.7667 61.5891 81.2614 59.8106C81.0318 58.993 80.7287 58.1979 80.3557 57.435C81.5048 55.8001 82.2442 53.913 82.5114 51.9326C82.7787 49.9522 82.566 47.9366 81.8914 46.0556C80.5395 42.1706 77.4157 38.8369 74.0164 37.7081C68.4579 35.8575 62.1842 35.8969 57.5051 36.3234C56.5337 36.4108 55.5644 36.5202 54.5979 36.6516C56.8745 26.9022 56.7348 16.7443 54.1911 7.06125C53.7485 5.50981 52.8995 4.10475 51.7319 2.99139C50.5643 1.87802 49.1205 1.09678 47.5498 0.728441L45.837 0.301878ZM63.1357 96.6066H40.167C36.8201 96.6066 34.5036 96.1537 32.6857 95.5303C30.8417 94.8937 29.3651 94.0341 27.5932 92.9512L27.3307 92.7937C23.6886 90.5691 19.4689 87.9966 10.9901 87.0975C8.8048 86.8612 7.35449 85.1944 7.35449 83.4881V57.225C7.35449 55.5581 8.83762 53.6616 11.4232 52.9594C18.6092 50.9906 24.3973 46.4231 28.5776 41.7506C32.7448 37.0913 35.5601 32.0709 36.702 28.77C38.2967 24.1763 39.3729 17.1675 39.8651 10.0669C40.0292 7.69125 42.2276 6.16875 44.2423 6.6675L45.9617 7.10063C47.0117 7.36313 47.6548 8.03907 47.8517 8.77407C50.5317 18.9855 50.2012 29.754 46.9001 39.7819C46.7133 40.3396 46.6798 40.9373 46.8031 41.5124C46.9265 42.0875 47.2022 42.6189 47.6013 43.0509C48.0005 43.483 48.5084 43.7998 49.072 43.9682C49.6356 44.1365 50.2341 44.1504 50.8048 44.0081L50.8245 44.0016L50.9164 43.9819L51.297 43.89C53.5411 43.4135 55.8112 43.0694 58.0957 42.8597C62.4467 42.4659 67.6573 42.5053 71.9426 43.9359C73.0911 44.3166 74.8957 45.9047 75.6832 48.2016C76.3854 50.2228 76.2542 52.5984 73.9376 54.9084L71.6211 57.225L73.9376 59.5481C74.2198 59.8303 74.6267 60.4734 74.9482 61.6153C75.2632 62.7112 75.4404 64.0434 75.4404 65.4281C75.4404 66.8194 75.2632 68.145 74.9482 69.2475C74.6201 70.3894 74.2198 71.0325 73.9376 71.3147L71.6211 73.6312L73.9376 75.9544C74.2461 76.2628 74.6529 77.1159 73.9704 79.1569C73.2593 81.136 72.1288 82.9381 70.6564 84.4397L68.3398 86.7562L70.6564 89.0794C70.6957 89.1122 70.9254 89.4075 70.9254 90.195C70.8963 91.1576 70.6231 92.097 70.1314 92.925C69.0486 94.815 66.8304 96.6 63.1357 96.6V96.6066Z" fill="#21272A"/>
</svg>
